<svg width="48" height="48" viewBox="0 0 48 48" fill="none" xmlns="http://www.w3.org/2000/svg">
<path d="M7.08057 6.4138C7.08057 5.63298 7.71355 5 8.49436 5H29.2657C30.0465 5 30.6795 5.63298 30.6795 6.41379V27.8244C30.6795 28.4428 30.2776 28.9894 29.6874 29.1738L8.91606 35.6649C8.00568 35.9494 7.08057 35.2692 7.08057 34.3154V6.4138Z" stroke="#D0D7E0" stroke-width="2"/>
<path d="M18.7337 11.4009H39.5051C40.2859 11.4009 40.9189 12.0339 40.9189 12.8147V34.2253C40.9189 34.8436 40.517 35.3903 39.9268 35.5747L19.1554 42.0658C18.2451 42.3503 17.3199 41.6701 17.3199 40.7163V12.8147C17.3199 12.0339 17.9529 11.4009 18.7337 11.4009Z" stroke="#D0D7E0" stroke-width="2"/>
</svg>
