<svg width="48" height="48" viewBox="0 0 48 48" fill="none" xmlns="http://www.w3.org/2000/svg">
<g clip-path="url(#clip0_2938_2652)">
<path d="M26.5451 2.27441H25.2722V22.7257H45.7235V21.4528C45.7235 16.3478 43.7238 11.5365 40.0925 7.90539C36.4613 4.27423 31.65 2.27441 26.5451 2.27441ZM27.818 20.1799V4.86842C35.9767 5.48874 42.5091 12.0212 43.1295 20.1799H27.818Z" fill="#D0D7E0"/>
<path d="M22.7264 7.45166H21.4535C10.8785 7.45166 2.27515 16.017 2.27515 26.5452C2.27515 37.0999 10.8996 45.7235 21.4535 45.7235C31.9816 45.7235 40.547 37.1201 40.547 26.5452V25.2723H22.7264V7.45166ZM20.1806 23.4721L10.6671 13.9586C13.2706 11.7469 16.566 10.3188 20.1806 10.0454V23.4721ZM4.82094 26.5452C4.82094 22.4238 6.34393 18.6501 8.85841 15.7502L19.6534 26.5452L8.83261 37.3659C6.3334 34.455 4.82094 30.6736 4.82094 26.5452ZM21.4535 43.1777C17.3251 43.1777 13.5436 41.6652 10.6327 39.166L21.9807 27.8172H37.9532C37.3042 36.3969 30.1519 43.1777 21.4535 43.1777Z" fill="#D0D7E0"/>
</g>
<defs>
<clipPath id="clip0_2938_2652">
<rect width="43.4483" height="43.4483" fill="white" transform="translate(2.27563 2.27588)"/>
</clipPath>
</defs>
</svg>
