<svg width="48" height="48" viewBox="0 0 48 48" fill="none" xmlns="http://www.w3.org/2000/svg">
<g clip-path="url(#clip0_2938_2695)">
<path d="M41.3406 24.5163C41.1797 24.187 41.1797 23.8093 41.3406 23.4801L42.8325 20.4282C43.6631 18.7289 43.005 16.7035 41.3342 15.817L38.3335 14.2249C38.0097 14.0531 37.7878 13.7475 37.7244 13.3867L37.1375 10.0407C36.8107 8.1777 35.0875 6.92583 33.2151 7.19075L29.8516 7.66653C29.4885 7.71778 29.1295 7.60106 28.8662 7.3463L26.4247 4.98444C25.0653 3.66929 22.9356 3.66921 21.5762 4.98444L19.1347 7.34653C18.8712 7.60138 18.5123 7.71786 18.1493 7.66677L14.7858 7.19099C12.9128 6.92591 11.1901 8.17793 10.8633 10.0409L10.2765 13.3867C10.2131 13.7477 9.99114 14.0532 9.66747 14.225L6.66671 15.8172C4.99594 16.7036 4.33782 18.7291 5.16844 20.4284L6.66023 23.4803C6.82116 23.8096 6.82116 24.1872 6.66023 24.5164L5.16836 27.5683C4.33774 29.2676 4.99586 31.293 6.66663 32.1794L9.6674 33.7716C9.99114 33.9433 10.2131 34.249 10.2765 34.6098L10.8633 37.9558C11.1608 39.6517 12.615 40.8411 14.2863 40.8409C14.451 40.8409 14.618 40.8294 14.7859 40.8056L18.1494 40.3299C18.5121 40.2784 18.8713 40.3953 19.1348 40.6501L21.5762 43.0119C22.2561 43.6696 23.1281 43.9984 24.0004 43.9983C24.8725 43.9982 25.7451 43.6694 26.4246 43.0119L28.8662 40.6501C29.1296 40.3953 29.4887 40.2789 29.8516 40.3299L33.2151 40.8056C35.0883 41.0706 36.8107 39.8187 37.1375 37.9557L37.7245 34.6099C37.7878 34.249 38.0098 33.9434 38.3335 33.7716L41.3342 32.1794C43.005 31.293 43.6631 29.2675 42.8325 27.5682L41.3406 24.5163ZM40.2529 30.1414L37.2521 31.7336C36.2954 32.2413 35.6393 33.1443 35.4521 34.2111L34.8653 37.5571C34.7547 38.1874 34.172 38.6107 33.5382 38.5213L30.1747 38.0455C29.102 37.8935 28.0406 38.2388 27.2621 38.9918L24.8206 41.3536C24.3607 41.7984 23.6402 41.7984 23.1802 41.3536L20.7387 38.9917C20.0808 38.3553 19.2206 38.0103 18.3227 38.0103C18.1581 38.0103 17.9923 38.0219 17.8262 38.0454L14.4627 38.5212C13.8294 38.6107 13.2462 38.1873 13.1356 37.557L12.5486 34.211C12.3614 33.1441 11.7054 32.2411 10.7486 31.7335L7.7478 30.1413C7.18249 29.8414 6.95984 29.1562 7.24085 28.5813L8.73271 25.5293C9.20834 24.5562 9.20834 23.4401 8.73271 22.467L7.24085 19.4151C6.95984 18.8401 7.18249 18.1549 7.7478 17.855L10.7486 16.2628C11.7053 15.7551 12.3614 14.8521 12.5485 13.7852L13.1354 10.4393C13.246 9.80902 13.8287 9.38558 14.4625 9.47511L17.826 9.95089C18.8983 10.1027 19.9601 9.75761 20.7386 9.00457L23.1801 6.64271C23.64 6.19787 24.3605 6.19787 24.8205 6.64271L27.262 9.00457C28.0405 9.75769 29.1021 10.1027 30.1745 9.95089L33.538 9.47511C34.1714 9.38551 34.7546 9.80902 34.8651 10.4393L35.452 13.7853C35.6392 14.8522 36.2953 15.7552 37.2521 16.2628L40.2528 17.855C40.8181 18.1549 41.0408 18.8401 40.7598 19.4151L39.2679 22.4669C38.7923 23.44 38.7923 24.5562 39.2679 25.5292L40.7598 28.5811C41.0409 29.1562 40.8182 29.8415 40.2529 30.1414Z" fill="#D0D7E0"/>
<path d="M32.4284 15.5712C31.978 15.1208 31.2476 15.1208 30.7971 15.5712L15.5715 30.7969C15.121 31.2474 15.121 31.9778 15.5715 32.4283C15.7967 32.6535 16.092 32.7662 16.3871 32.7662C16.6823 32.7662 16.9776 32.6536 17.2027 32.4283L32.4283 17.2026C32.879 16.7521 32.879 16.0218 32.4284 15.5712Z" fill="#D0D7E0"/>
<path d="M19.3859 13.6177C17.0538 13.6177 15.1564 15.5151 15.1564 17.8473C15.1564 20.1794 17.0538 22.0768 19.3859 22.0768C21.7181 22.0768 23.6155 20.1794 23.6155 17.8473C23.6155 15.5151 21.7181 13.6177 19.3859 13.6177ZM19.3859 19.7697C18.3259 19.7697 17.4635 18.9073 17.4635 17.8472C17.4635 16.7871 18.3259 15.9247 19.3859 15.9247C20.446 15.9247 21.3085 16.7871 21.3085 17.8472C21.3084 18.9073 20.446 19.7697 19.3859 19.7697Z" fill="#D0D7E0"/>
<path d="M28.6143 25.9209C26.2822 25.9209 24.3848 27.8183 24.3848 30.1505C24.3848 32.4826 26.2822 34.3801 28.6143 34.3801C30.9465 34.3801 32.8439 32.4826 32.8439 30.1505C32.8439 27.8183 30.9465 25.9209 28.6143 25.9209ZM28.6143 32.073C27.5543 32.073 26.6918 31.2105 26.6918 30.1505C26.6918 29.0904 27.5542 28.228 28.6143 28.228C29.6744 28.228 30.5368 29.0904 30.5368 30.1505C30.5368 31.2105 29.6744 32.073 28.6143 32.073Z" fill="#D0D7E0"/>
</g>
<defs>
<clipPath id="clip0_2938_2695">
<rect width="40" height="40" fill="white" transform="translate(3.99988 4)"/>
</clipPath>
</defs>
</svg>
