<svg width="48" height="49" viewBox="0 0 48 49" fill="none" xmlns="http://www.w3.org/2000/svg">
<g clip-path="url(#clip0_2962_2711)">
<path d="M41.3406 25.2233C41.1797 24.894 41.1797 24.5164 41.3406 24.1871L42.8325 21.1352C43.6631 19.4359 43.005 17.4105 41.3342 16.5241L38.3335 14.9319C38.0097 14.7602 37.7878 14.4545 37.7244 14.0937L37.1375 10.7477C36.8107 8.88473 35.0875 7.63286 33.2151 7.89778L29.8516 8.37356C29.4885 8.42481 29.1295 8.30809 28.8662 8.05333L26.4247 5.69147C25.0653 4.37632 22.9356 4.37624 21.5762 5.69147L19.1347 8.05356C18.8712 8.30841 18.5123 8.42489 18.1493 8.3738L14.7858 7.89802C12.9128 7.63294 11.1901 8.88497 10.8633 10.7479L10.2765 14.0938C10.2131 14.4547 9.99114 14.7602 9.66747 14.932L6.66671 16.5242C4.99594 17.4106 4.33782 19.4362 5.16844 21.1354L6.66023 24.1873C6.82116 24.5166 6.82116 24.8942 6.66023 25.2235L5.16836 28.2753C4.33774 29.9746 4.99586 32 6.66663 32.8865L9.6674 34.4786C9.99114 34.6504 10.2131 34.956 10.2765 35.3168L10.8633 38.6628C11.1608 40.3588 12.615 41.5481 14.2863 41.548C14.451 41.548 14.618 41.5364 14.7859 41.5127L18.1494 41.0369C18.5121 40.9854 18.8713 41.1024 19.1348 41.3571L21.5762 43.719C22.2561 44.3766 23.1281 44.7054 24.0004 44.7053C24.8725 44.7052 25.7451 44.3765 26.4246 43.719L28.8662 41.3571C29.1296 41.1024 29.4887 40.9859 29.8516 41.0369L33.2151 41.5127C35.0883 41.7777 36.8107 40.5257 37.1375 38.6628L37.7245 35.3169C37.7878 34.956 38.0098 34.6504 38.3335 34.4786L41.3342 32.8865C43.005 32.0001 43.6631 29.9745 42.8325 28.2752L41.3406 25.2233ZM40.2529 30.8484L37.2521 32.4406C36.2954 32.9483 35.6393 33.8513 35.4521 34.9182L34.8653 38.2641C34.7547 38.8944 34.172 39.3178 33.5382 39.2283L30.1747 38.7525C29.102 38.6006 28.0406 38.9458 27.2621 39.6988L24.8206 42.0606C24.3607 42.5055 23.6402 42.5055 23.1802 42.0606L20.7387 39.6988C20.0808 39.0623 19.2206 38.7174 18.3227 38.7174C18.1581 38.7174 17.9923 38.7289 17.8262 38.7524L14.4627 39.2282C13.8294 39.3178 13.2462 38.8943 13.1356 38.264L12.5486 34.918C12.3614 33.8511 11.7054 32.9481 10.7486 32.4405L7.7478 30.8484C7.18249 30.5484 6.95984 29.8632 7.24085 29.2883L8.73271 26.2363C9.20834 25.2632 9.20834 24.1471 8.73271 23.174L7.24085 20.1221C6.95984 19.5472 7.18249 18.8619 7.7478 18.562L10.7486 16.9698C11.7053 16.4621 12.3614 15.5591 12.5485 14.4923L13.1354 11.1464C13.246 10.516 13.8287 10.0926 14.4625 10.1821L17.826 10.6579C18.8983 10.8097 19.9601 10.4646 20.7386 9.7116L23.1801 7.34974C23.64 6.9049 24.3605 6.9049 24.8205 7.34974L27.262 9.7116C28.0405 10.4647 29.1021 10.8097 30.1745 10.6579L33.538 10.1821C34.1714 10.0925 34.7546 10.516 34.8651 11.1464L35.452 14.4924C35.6392 15.5592 36.2953 16.4623 37.2521 16.9698L40.2528 18.562C40.8181 18.8619 41.0408 19.5472 40.7598 20.1221L39.2679 23.1739C38.7923 24.147 38.7923 25.2632 39.2679 26.2363L40.7598 29.2881C41.0409 29.8632 40.8182 30.5485 40.2529 30.8484Z" fill="#9966FF"/>
<path d="M40.2529 30.8484L37.2521 32.4406C36.2954 32.9483 35.6393 33.8513 35.4521 34.9182L34.8653 38.2641C34.7547 38.8944 34.172 39.3178 33.5382 39.2283L30.1747 38.7525C29.102 38.6006 28.0406 38.9458 27.2621 39.6988L24.8206 42.0606C24.3607 42.5055 23.6402 42.5055 23.1802 42.0606L20.7387 39.6988C20.0808 39.0623 19.2206 38.7174 18.3227 38.7174C18.1581 38.7174 17.9923 38.7289 17.8262 38.7524L14.4627 39.2282C13.8294 39.3178 13.2462 38.8943 13.1356 38.264L12.5486 34.918C12.3614 33.8511 11.7054 32.9481 10.7486 32.4405L7.7478 30.8484C7.18249 30.5484 6.95984 29.8632 7.24085 29.2883L8.73271 26.2363C9.20834 25.2632 9.20834 24.1471 8.73271 23.174L7.24085 20.1221C6.95984 19.5472 7.18249 18.8619 7.7478 18.562L10.7486 16.9698C11.7053 16.4621 12.3614 15.5591 12.5485 14.4923L13.1354 11.1464C13.246 10.516 13.8287 10.0926 14.4625 10.1821L17.826 10.6579C18.8983 10.8097 19.9601 10.4646 20.7386 9.7116L23.1801 7.34974C23.64 6.9049 24.3605 6.9049 24.8205 7.34974L27.262 9.7116C28.0405 10.4647 29.1021 10.8097 30.1745 10.6579L33.538 10.1821C34.1714 10.0925 34.7546 10.516 34.8651 11.1464L35.452 14.4924C35.6392 15.5592 36.2953 16.4623 37.2521 16.9698L40.2528 18.562C40.8181 18.8619 41.0408 19.5472 40.7598 20.1221L39.2679 23.1739C38.7923 24.147 38.7923 25.2632 39.2679 26.2363L40.7598 29.2881C41.0409 29.8632 40.8182 30.5485 40.2529 30.8484Z" fill="#17E4E2"/>
<path d="M32.4284 16.2783C31.978 15.8278 31.2476 15.8278 30.7971 16.2783L15.5715 31.504C15.121 31.9544 15.121 32.6848 15.5715 33.1353C15.7967 33.3605 16.092 33.4732 16.3871 33.4732C16.6823 33.4732 16.9776 33.3606 17.2027 33.1353L32.4283 17.9097C32.879 17.4591 32.879 16.7288 32.4284 16.2783Z" fill="#9966FF"/>
<path d="M19.3859 14.3247C17.0538 14.3247 15.1564 16.2221 15.1564 18.5543C15.1564 20.8865 17.0538 22.7839 19.3859 22.7839C21.7181 22.7839 23.6155 20.8865 23.6155 18.5543C23.6155 16.2221 21.7181 14.3247 19.3859 14.3247ZM19.3859 20.4768C18.3259 20.4768 17.4635 19.6144 17.4635 18.5542C17.4635 17.4941 18.3259 16.6317 19.3859 16.6317C20.446 16.6317 21.3085 17.4941 21.3085 18.5542C21.3084 19.6144 20.446 20.4768 19.3859 20.4768Z" fill="#9966FF"/>
<path d="M28.6143 26.6279C26.2822 26.6279 24.3848 28.5253 24.3848 30.8575C24.3848 33.1897 26.2822 35.0871 28.6143 35.0871C30.9465 35.0871 32.8439 33.1897 32.8439 30.8575C32.8439 28.5253 30.9465 26.6279 28.6143 26.6279ZM28.6143 32.78C27.5543 32.78 26.6918 31.9176 26.6918 30.8575C26.6918 29.7974 27.5542 28.935 28.6143 28.935C29.6744 28.935 30.5368 29.7974 30.5368 30.8575C30.5368 31.9176 29.6744 32.78 28.6143 32.78Z" fill="#9966FF"/>
</g>
<defs>
<clipPath id="clip0_2962_2711">
<rect width="40" height="40" fill="white" transform="translate(3.99988 4.70703)"/>
</clipPath>
</defs>
</svg>
