<svg width="48" height="49" viewBox="0 0 48 49" fill="none" xmlns="http://www.w3.org/2000/svg">
<path d="M26.5192 3.20703H25.2595V23.446H45.4984V22.1863C45.4984 11.7668 36.9386 3.20703 26.5192 3.20703Z" fill="#17E4E2"/>
<path d="M9.05884 41.4311C12.3839 44.3429 16.7236 46.2072 21.4807 46.2072C31.9001 46.2072 40.3759 37.6474 40.3759 27.2279V25.9683H24.5216L9.05884 41.4311Z" fill="#9966FF"/>
<path d="M22.7407 8.32959H21.481C17.3674 8.32959 13.5684 9.66553 10.4626 11.9058L22.7407 24.1839V8.32959Z" fill="#42DFF0"/>
<path d="M8.51234 13.521C4.87168 16.9673 2.50146 21.8301 2.50146 27.2274C2.50146 31.9845 4.3658 36.3241 7.27759 39.6493L20.9591 25.9678L8.51234 13.521Z" fill="url(#paint0_linear_2962_2693)"/>
<defs>
<linearGradient id="paint0_linear_2962_2693" x1="15.7038" y1="-1.64274" x2="22.6391" y2="-0.986935" gradientUnits="userSpaceOnUse">
<stop stop-color="#14B6FC"/>
<stop offset="1" stop-color="#0F21F0"/>
</linearGradient>
</defs>
</svg>
