<svg width="49" height="49" viewBox="0 0 49 49" fill="none" xmlns="http://www.w3.org/2000/svg">
<path d="M12.8841 8.125C6.58521 8.125 1.47893 13.2313 1.47893 19.5302C1.47893 25.8291 6.58521 30.9354 12.8841 30.9354H19.5627L19.9584 19.4882C19.9977 18.3496 20.6138 17.3018 21.6037 16.7227C22.596 16.1424 23.8163 16.1205 24.8286 16.6657L38.8336 24.208C39.8986 24.7815 40.5613 25.8876 40.582 27.0884C40.6027 28.2891 39.979 29.4174 38.9351 30.0277L37.6769 30.7637C43.0308 29.8253 47.0997 25.153 47.0997 19.5302C47.0997 13.2313 41.9935 8.125 35.6945 8.125H12.8841Z" fill="#9966FF"/>
<path d="M37.8904 36.0422C37.775 36.4785 37.4932 36.8505 37.107 37.0763L31.283 40.4829C30.479 40.9531 29.4507 40.674 28.9865 39.8593L26.4647 35.4343L23.5526 37.1376C23.0234 37.4471 22.3699 37.4413 21.8461 37.1224C21.3222 36.8036 21.0104 36.2217 21.0317 35.6029L21.5868 19.5446C21.607 18.9577 21.9244 18.4228 22.4264 18.1292C22.9284 17.8354 23.5443 17.8245 24.0562 18.1002L38.0611 25.6424C38.6008 25.9331 38.9423 26.4975 38.9529 27.1166C38.9636 27.7356 38.6418 28.3117 38.1126 28.6215L35.2006 30.3246L37.7224 34.7498C37.9455 35.141 38.0058 35.6059 37.8904 36.0422Z" fill="#17E4E2"/>
</svg>
