<svg width="48" height="48" viewBox="0 0 48 48" fill="none" xmlns="http://www.w3.org/2000/svg">
<g clip-path="url(#clip0_2938_2746)">
<path d="M16.6506 14.3643L16.915 14.9568H17.5638H24.1238H24.7726L25.037 14.3643C25.4627 13.4102 26.06 12.5279 26.5663 11.8693C26.8171 11.543 27.0405 11.2781 27.2014 11.0938C27.2817 11.0018 27.3467 10.9298 27.3925 10.8792L27.4502 10.8156C27.452 10.8136 27.4541 10.8113 27.4563 10.8088C28.0039 10.2629 28.1308 9.4663 27.8439 8.78461C27.5507 8.08795 26.8765 7.62793 26.1141 7.62793C24.2355 7.62793 23.1718 8.32184 22.4324 8.81481L22.4323 8.81474L22.4216 8.82213C22.1048 9.03935 21.9176 9.1613 21.7066 9.24627C21.5154 9.32329 21.2628 9.3847 20.8438 9.3847C20.4248 9.3847 20.1723 9.32329 19.981 9.24627C19.77 9.1613 19.5829 9.03935 19.2661 8.82213L19.2661 8.82206L19.2553 8.81481C18.5158 8.32184 17.4521 7.62793 15.5735 7.62793C14.8111 7.62793 14.137 8.08796 13.8438 8.78447C13.5567 9.46622 13.6836 10.2629 14.2314 10.8089C14.2336 10.8114 14.2357 10.8137 14.2375 10.8157L14.2951 10.8792C14.341 10.9298 14.4059 11.0019 14.4862 11.0938C14.6471 11.2781 14.8705 11.543 15.1213 11.8693C15.6276 12.5278 16.2249 13.4102 16.6506 14.3643Z" stroke="#D0D7E0" stroke-width="2"/>
<path d="M28.0856 37.4815V38.9102C28.0856 39.8564 28.9669 40.3746 29.714 40.3746H40.3131C41.0602 40.3746 41.9415 39.8564 41.9415 38.9102V37.4815C41.9415 36.5353 41.0602 36.0171 40.3131 36.0171H29.714C28.9669 36.0171 28.0856 36.5353 28.0856 37.4815Z" stroke="#D0D7E0" stroke-width="1.5"/>
<path d="M41.9415 32.7705V31.834C41.9415 31.2927 41.5423 30.9771 41.2871 30.841C40.9995 30.6877 40.6538 30.6157 40.3131 30.6157H29.714C29.3733 30.6157 29.0276 30.6877 28.74 30.841C28.4848 30.9771 28.0856 31.2927 28.0856 31.834V32.7705C28.0856 33.3118 28.4848 33.6274 28.74 33.7634C29.0276 33.9168 29.3733 33.9888 29.714 33.9888H40.3131C40.6538 33.9888 40.9995 33.9168 41.2871 33.7634C41.5423 33.6274 41.9415 33.3118 41.9415 32.7705Z" stroke="#D0D7E0" stroke-width="1.5"/>
<path d="M27.6403 22.1204L27.6397 22.1198C26.2493 20.7577 25.2501 19.7201 24.7807 18.4231C25.6182 18.2332 26.2359 17.4902 26.2359 16.5918C26.2359 15.5476 25.4017 14.7134 24.3575 14.7134H17.3304C16.2862 14.7134 15.452 15.5476 15.452 16.5918C15.452 17.4902 16.0696 18.2332 16.9072 18.4231C16.4378 19.7201 15.4386 20.7577 14.0482 22.1198L14.0252 22.1422C12.7911 23.3502 11.3724 24.739 10.2817 26.6571C9.17148 28.6095 8.42493 31.0611 8.42493 34.3937V34.4013L8.42504 34.4089C8.46884 37.2992 10.9243 39.61 13.8169 39.61H25.3975H26.8159L26.3394 38.274C26.2707 38.0815 26.2359 37.9028 26.2359 37.7316V30.7045C26.2359 29.8039 26.9705 29.0693 27.871 29.0693H31.0174H32.5875L31.9236 27.6465C30.7848 25.2057 29.1005 23.5532 27.6781 22.1575L27.6403 22.1204Z" stroke="#D0D7E0" stroke-width="2"/>
</g>
<defs>
<clipPath id="clip0_2938_2746">
<rect width="36" height="36" fill="white" transform="translate(6.29285 6)"/>
</clipPath>
</defs>
</svg>
