<svg width="48" height="49" viewBox="0 0 48 49" fill="none" xmlns="http://www.w3.org/2000/svg">
<path d="M14.8583 11.8164H23.6101C24.8634 9.0075 27.0673 6.73617 27.0858 6.69922C27.4373 6.37109 27.5311 5.87891 27.3436 5.43359C27.1562 4.98828 26.7343 4.70703 26.2655 4.70703C24.1562 4.70703 23.0077 5.45703 22.0937 6.06641C21.2733 6.62891 20.6405 7.05078 19.2343 7.05078C17.828 7.05078 17.1952 6.62891 16.3749 6.06641C15.4608 5.45703 14.3124 4.70703 12.203 4.70703C11.7343 4.70703 11.3124 4.98828 11.1249 5.43359C10.9374 5.87891 11.0312 6.37109 11.3827 6.69922C11.4012 6.73617 13.6051 9.0075 14.8583 11.8164Z" fill="url(#paint0_linear_2962_2735)"/>
<path d="M27.5156 41.1914V43.5352C27.5156 44.1823 28.0403 44.707 28.6875 44.707H42.8281C43.4753 44.707 44 44.1823 44 43.5352V41.1914C44 40.5442 43.4753 40.0195 42.8281 40.0195H28.6875C28.0403 40.0195 27.5156 40.5442 27.5156 41.1914Z" fill="#17E4E2"/>
<path d="M44 36.5039V34.1602C44 33.513 43.4753 32.9883 42.8281 32.9883H28.6875C28.0403 32.9883 27.5156 33.513 27.5156 34.1602V36.5039C27.5156 37.1511 28.0403 37.6758 28.6875 37.6758H42.8281C43.4753 37.6758 44 37.1511 44 36.5039Z" fill="#17E4E2"/>
<path d="M27.3672 23.6602C25.0703 21.4102 23.1953 19.5039 22.8203 16.5039H23.9219C24.5781 16.5039 25.0938 15.9883 25.0938 15.332C25.0938 14.6758 24.5781 14.1602 23.9219 14.1602H14.5469C13.8906 14.1602 13.375 14.6758 13.375 15.332C13.375 15.9883 13.8906 16.5039 14.5469 16.5039H15.6484C15.2734 19.5039 13.3984 21.4102 11.1016 23.6602C7.77344 26.918 4 30.6211 4 39.082C4.04688 42.1758 6.69531 44.707 9.85938 44.707H25.3094C25.1781 44.3391 25.0938 43.9477 25.0938 43.5352V34.1602C25.0938 32.2219 26.6711 30.6445 28.6094 30.6445H32.807C31.3891 27.6055 29.2859 25.543 27.3672 23.6602ZM19.2344 30.6445C21.173 30.6445 22.75 32.2216 22.75 34.1602C22.75 35.6859 21.7673 36.9745 20.4062 37.4599V38.8477C20.4062 39.4954 19.8821 40.0195 19.2344 40.0195C18.5866 40.0195 18.0625 39.4954 18.0625 38.8477V37.4599C16.7014 36.9746 15.7188 35.6859 15.7188 34.1602C15.7188 33.5124 16.2429 32.9883 16.8906 32.9883C17.5384 32.9883 18.0625 33.5124 18.0625 34.1602C18.0625 34.8067 18.5878 35.332 19.2344 35.332C19.8809 35.332 20.4062 34.8067 20.4062 34.1602C20.4062 33.5136 19.8809 32.9883 19.2344 32.9883C17.2958 32.9883 15.7188 31.4112 15.7188 29.4727C15.7188 27.9469 16.7014 26.6583 18.0625 26.1729V24.7852C18.0625 24.1374 18.5866 23.6133 19.2344 23.6133C19.8821 23.6133 20.4062 24.1374 20.4062 24.7852V26.1729C21.7673 26.6582 22.75 27.9469 22.75 29.4727C22.75 30.1204 22.2259 30.6445 21.5781 30.6445C20.9304 30.6445 20.4062 30.1204 20.4062 29.4727C20.4062 28.8261 19.8809 28.3008 19.2344 28.3008C18.5878 28.3008 18.0625 28.8261 18.0625 29.4727C18.0625 30.1192 18.5878 30.6445 19.2344 30.6445Z" fill="url(#paint1_linear_2962_2735)"/>
<defs>
<linearGradient id="paint0_linear_2962_2735" x1="22.7665" y1="0.581055" x2="28.4448" y2="2.33528" gradientUnits="userSpaceOnUse">
<stop stop-color="#14B6FC"/>
<stop offset="1" stop-color="#0F21F0"/>
</linearGradient>
<linearGradient id="paint1_linear_2962_2735" x1="24.605" y1="-3.56794" x2="35.3545" y2="-2.21099" gradientUnits="userSpaceOnUse">
<stop stop-color="#14B6FC"/>
<stop offset="1" stop-color="#0F21F0"/>
</linearGradient>
</defs>
</svg>
