<svg width="48" height="49" viewBox="0 0 48 49" fill="none" xmlns="http://www.w3.org/2000/svg">
<path d="M6.08032 7.12083C6.08032 5.78773 7.16102 4.70703 8.49412 4.70703H29.2664C30.5995 4.70703 31.6801 5.78772 31.6801 7.12083V28.5323C31.6801 29.588 30.994 30.5213 29.9863 30.8362L9.21409 37.3275C7.65978 37.8132 6.08032 36.652 6.08032 35.0236V7.12083Z" fill="#17E4E2"/>
<path d="M16.3196 13.5212C16.3196 12.1881 17.4003 11.1074 18.7334 11.1074H39.5056C40.8387 11.1074 41.9194 12.1881 41.9194 13.5212V34.9326C41.9194 35.9884 41.2333 36.9217 40.2256 37.2366L19.4534 43.7279C17.899 44.2136 16.3196 43.0524 16.3196 41.424V13.5212Z" fill="url(#paint0_linear_2962_2699)"/>
<defs>
<linearGradient id="paint0_linear_2962_2699" x1="34.6306" y1="-8.39245" x2="44.2356" y2="-7.41286" gradientUnits="userSpaceOnUse">
<stop stop-color="#14B6FC"/>
<stop offset="1" stop-color="#0F21F0"/>
</linearGradient>
</defs>
</svg>
