<svg width="48" height="48" viewBox="0 0 48 48" fill="none" xmlns="http://www.w3.org/2000/svg">
<g clip-path="url(#clip0_2938_2636)">
<path d="M45.8102 19.1122C45.8102 22.7287 43.9647 25.9151 41.1641 27.7799C41.2548 27.4156 41.299 27.0372 41.2924 26.6532C41.2655 25.0956 40.406 23.6568 39.0182 22.9095L25.0133 15.3673C23.6938 14.6567 22.1025 14.6852 20.8094 15.4416L20.8094 15.4416C19.5198 16.1959 18.7205 17.5585 18.6696 19.0356C18.6696 19.0357 18.6696 19.0357 18.6696 19.0357L18.3072 29.5174H12.5947C6.84802 29.5174 2.18945 24.8589 2.18945 19.1122C2.18945 13.3656 6.84802 8.70703 12.5947 8.70703H35.405C41.1517 8.70703 45.8102 13.3656 45.8102 19.1122Z" stroke="#D0D7E0" stroke-width="2"/>
<path d="M36.3126 35.7952L36.3127 35.7951C36.4685 35.704 36.5857 35.5517 36.6341 35.3686C36.6827 35.1848 36.6569 34.9897 36.5642 34.8272L36.5641 34.827L34.0423 30.4018L33.5527 29.5426L34.4062 29.0434L37.318 27.3405C37.3181 27.3404 37.3182 27.3404 37.3183 27.3403C37.5319 27.2151 37.6681 26.9777 37.6635 26.716L37.6635 26.7158C37.6591 26.4539 37.5148 26.222 37.2975 26.1049L36.3126 35.7952ZM36.3126 35.7952L30.4887 39.2017C30.4887 39.2017 30.4887 39.2017 30.4887 39.2017C30.1705 39.3878 29.7575 39.2826 29.5659 38.9463L29.5659 38.9462L27.044 34.5212L26.5433 33.6425L25.6703 34.1531L22.7582 35.8564L22.7582 35.8564C22.5465 35.9803 22.2865 35.9781 22.0765 35.8503C21.865 35.7215 21.7326 35.4815 21.7416 35.2195C21.7416 35.2195 21.7416 35.2195 21.7416 35.2194L22.2968 19.1611L22.2968 19.161C22.3053 18.913 22.4392 18.6929 22.6418 18.5744L22.642 18.5743C22.843 18.4567 23.0878 18.4524 23.2926 18.5627C23.2926 18.5627 23.2926 18.5627 23.2926 18.5627L37.2974 26.1049L36.3126 35.7952Z" stroke="#D0D7E0" stroke-width="2"/>
</g>
<defs>
<clipPath id="clip0_2938_2636">
<rect width="48" height="48" fill="white"/>
</clipPath>
</defs>
</svg>
